<?xml version="1.0" encoding="UTF-8" standalone="no"?>
<svg width="89px" height="29px" viewBox="0 0 89 29" version="1.1" xmlns="http://www.w3.org/2000/svg" xmlns:xlink="http://www.w3.org/1999/xlink">
    <!-- Generator: Sketch 3.6.1 (26313) - http://www.bohemiancoding.com/sketch -->
    <title>there</title>
    <desc>Created with Sketch.</desc>
    <defs>
        <linearGradient x1="37.0094061%" y1="83.0185878%" x2="37.0094061%" y2="131.469953%" id="linearGradient-1">
            <stop stop-color="#7F7F7F" stop-opacity="0" offset="0%"></stop>
            <stop stop-color="#7F7F7F" stop-opacity="0.5" offset="100%"></stop>
        </linearGradient>
        <filter x="-50%" y="-50%" width="200%" height="200%" filterUnits="objectBoundingBox" id="filter-2">
            <feOffset dx="0" dy="0.2" in="SourceAlpha" result="shadowOffsetOuter1"></feOffset>
            <feGaussianBlur stdDeviation="0.15" in="shadowOffsetOuter1" result="shadowBlurOuter1"></feGaussianBlur>
            <feColorMatrix values="0 0 0 0 0   0 0 0 0 0   0 0 0 0 0  0 0 0 0.116488338 0" in="shadowBlurOuter1" type="matrix" result="shadowMatrixOuter1"></feColorMatrix>
            <feMerge>
                <feMergeNode in="shadowMatrixOuter1"></feMergeNode>
                <feMergeNode in="SourceGraphic"></feMergeNode>
            </feMerge>
        </filter>
        <path d="M12.572,13.744 L7.928,13.744 L6.848,21.484 C6.77599964,21.9640024 6.72200018,22.4379977 6.686,22.906 C6.64999982,23.3740023 6.67999952,23.7939981 6.776,24.166 C6.87200048,24.5380019 7.0699985,24.8379989 7.37,25.066 C7.6700015,25.2940011 8.13199688,25.408 8.756,25.408 C9.14000192,25.408 9.5419979,25.3720004 9.962,25.3 C10.3820021,25.2279996 10.7719982,25.096001 11.132,24.904 L10.7,27.856 C10.4839989,27.9760006 10.2380014,28.0719996 9.962,28.144 C9.68599862,28.2160004 9.41000138,28.2699998 9.134,28.306 C8.85799862,28.3420002 8.59400126,28.3719999 8.342,28.396 C8.08999874,28.4200001 7.88000084,28.432 7.712,28.432 C6.46399376,28.432 5.52200318,28.2580017 4.886,27.91 C4.24999682,27.5619983 3.80600126,27.1120028 3.554,26.56 C3.30199874,26.0079972 3.19399982,25.3900034 3.23,24.706 C3.26600018,24.0219966 3.33199952,23.3320035 3.428,22.636 L4.688,13.744 L0.944,13.744 L1.34,10.936 L5.084,10.936 L5.768,6.148 L9.008,6.148 L8.324,10.936 L12.968,10.936 L12.572,13.744 Z M21.176,13.132 L21.248,13.132 C21.6800022,12.4119964 22.3639953,11.7580029 23.3,11.17 C24.2360047,10.5819971 25.3759933,10.288 26.72,10.288 C27.8720058,10.288 28.8259962,10.4799981 29.582,10.864 C30.3380038,11.2480019 30.919998,11.7519969 31.328,12.376 C31.736002,13.0000031 31.9879995,13.7199959 32.084,14.536 C32.1800005,15.3520041 32.1680006,16.2039956 32.048,17.092 L30.536,28 L26.216,28 L27.44,19.252 C27.5120004,18.7719976 27.5599999,18.2380029 27.584,17.65 C27.6080001,17.0619971 27.5540007,16.5100026 27.422,15.994 C27.2899993,15.4779974 27.0320019,15.0460017 26.648,14.698 C26.2639981,14.3499983 25.7000037,14.176 24.956,14.176 C24.2359964,14.176 23.6120026,14.2959988 23.084,14.536 C22.5559974,14.7760012 22.1060019,15.099998 21.734,15.508 C21.3619981,15.916002 21.0620011,16.3839974 20.834,16.912 C20.6059989,17.4400026 20.4560004,17.9919971 20.384,18.568 L19.088,28 L14.768,28 L18.584,0.784 L22.904,0.784 L21.176,13.132 Z M39.86,20.872 C39.8359999,21.5200032 39.925999,22.0959975 40.13,22.6 C40.334001,23.1040025 40.6159982,23.5299983 40.976,23.878 C41.3360018,24.2260017 41.7679975,24.495999 42.272,24.688 C42.7760025,24.880001 43.327997,24.976 43.928,24.976 C45.0080054,24.976 45.949996,24.7540022 46.754,24.31 C47.558004,23.8659978 48.2719969,23.3080034 48.896,22.636 L51.668,24.976 C50.4919941,26.2240062 49.2440066,27.1119974 47.924,27.64 C46.6039934,28.1680026 45.2600068,28.432 43.892,28.432 C42.5959935,28.432 41.4020055,28.2160022 40.31,27.784 C39.2179945,27.3519978 38.3060037,26.740004 37.574,25.948 C36.8419963,25.155996 36.3080017,24.2020056 35.972,23.086 C35.6359983,21.9699944 35.563999,20.7280068 35.756,19.36 C35.948001,17.9919932 36.3679968,16.7500056 37.016,15.634 C37.6640032,14.5179944 38.4679952,13.564004 39.428,12.772 C40.3880048,11.979996 41.4739939,11.3680022 42.686,10.936 C43.8980061,10.5039978 45.1519935,10.288 46.448,10.288 C48.8720121,10.288 50.7079938,11.0979919 51.956,12.718 C53.2040062,14.3380081 53.624002,16.6599849 53.216,19.684 L53.036,20.872 L39.86,20.872 Z M49.184,17.632 C49.3520008,16.3599936 49.1000034,15.3580037 48.428,14.626 C47.7559966,13.8939963 46.7360068,13.528 45.368,13.528 C44.0719935,13.528 42.9920043,13.8999963 42.128,14.644 C41.2639957,15.3880037 40.6640017,16.3839938 40.328,17.632 L49.184,17.632 Z M58.508,10.72 L62.828,10.72 L62.432,13.456 L62.504,13.456 C63.1280031,12.447995 63.9259951,11.6680028 64.898,11.116 C65.8700049,10.5639972 66.9319942,10.288 68.084,10.288 C68.3480013,10.288 68.5999988,10.3119998 68.84,10.36 C69.0800012,10.4080002 69.3319987,10.4679996 69.596,10.54 L68.984,14.716 C68.6479983,14.6199995 68.3120017,14.5420003 67.976,14.482 C67.6399983,14.4219997 67.3040017,14.392 66.968,14.392 C65.959995,14.392 65.1200034,14.5779981 64.448,14.95 C63.7759966,15.3220019 63.242002,15.7479976 62.846,16.228 C62.449998,16.7080024 62.1680008,17.1879976 62,17.668 C61.8319992,18.1480024 61.7360001,18.5079988 61.712,18.748 L60.416,28 L56.096,28 L58.508,10.72 Z M74.528,20.872 C74.5039999,21.5200032 74.593999,22.0959975 74.798,22.6 C75.002001,23.1040025 75.2839982,23.5299983 75.644,23.878 C76.0040018,24.2260017 76.4359975,24.495999 76.94,24.688 C77.4440025,24.880001 77.995997,24.976 78.596,24.976 C79.6760054,24.976 80.617996,24.7540022 81.422,24.31 C82.226004,23.8659978 82.9399969,23.3080034 83.564,22.636 L86.336,24.976 C85.1599941,26.2240062 83.9120066,27.1119974 82.592,27.64 C81.2719934,28.1680026 79.9280068,28.432 78.56,28.432 C77.2639935,28.432 76.0700055,28.2160022 74.978,27.784 C73.8859945,27.3519978 72.9740037,26.740004 72.242,25.948 C71.5099963,25.155996 70.9760017,24.2020056 70.64,23.086 C70.3039983,21.9699944 70.231999,20.7280068 70.424,19.36 C70.616001,17.9919932 71.0359968,16.7500056 71.684,15.634 C72.3320032,14.5179944 73.1359952,13.564004 74.096,12.772 C75.0560048,11.979996 76.1419939,11.3680022 77.354,10.936 C78.5660061,10.5039978 79.8199935,10.288 81.116,10.288 C83.5400121,10.288 85.3759938,11.0979919 86.624,12.718 C87.8720062,14.3380081 88.292002,16.6599849 87.884,19.684 L87.704,20.872 L74.528,20.872 Z M83.852,17.632 C84.0200008,16.3599936 83.7680034,15.3580037 83.096,14.626 C82.4239966,13.8939963 81.4040068,13.528 80.036,13.528 C78.7399935,13.528 77.6600043,13.8999963 76.796,14.644 C75.9319957,15.3880037 75.3320017,16.3839938 74.996,17.632 L83.852,17.632 Z M14.9769176,27.8945312 C14.8295455,27.8945312 14.6821733,27.8945312 14.5348011,27.8945312 L14.9769176,27.8945312 Z" id="path-3"></path>
    </defs>
    <g id="Page-1-Copy" stroke="none" stroke-width="1" fill="none" fill-rule="evenodd" filter="url(#filter-2)">
        <g id="there">
            <use fill="#FFFFFF" xlink:href="#path-3"></use>
            <use fill="url(#linearGradient-1)" xlink:href="#path-3"></use>
        </g>
    </g>
</svg>