<svg width="88" height="28" viewBox="0 0 88 28" xmlns="http://www.w3.org/2000/svg"><title>there copy</title><path d="M11.628 12.96H6.984l-1.08 7.74c-.072.48-.126.954-.162 1.422-.036.468-.006.888.09 1.26s.294.672.594.9c.3.228.762.342 1.386.342.384 0 .786-.036 1.206-.108.42-.072.81-.204 1.17-.396l-.432 2.952c-.216.12-.462.216-.738.288-.276.072-.552.126-.828.162-.276.036-.54.066-.792.09-.252.024-.462.036-.63.036-1.248 0-2.19-.174-2.826-.522-.636-.348-1.08-.798-1.332-1.35s-.36-1.17-.324-1.854c.036-.684.102-1.374.198-2.07l1.26-8.892H0l.396-2.808H4.14l.684-4.788h3.24l-.684 4.788h4.644l-.396 2.808zm8.604-.612h.072c.432-.72 1.116-1.374 2.052-1.962.936-.588 2.076-.882 3.42-.882 1.152 0 2.106.192 2.862.576.756.384 1.338.888 1.746 1.512.408.624.66 1.344.756 2.16.096.816.084 1.668-.036 2.556l-1.512 10.908h-4.32l1.224-8.748c.072-.48.12-1.014.144-1.602.024-.588-.03-1.14-.162-1.656s-.39-.948-.774-1.296c-.384-.348-.948-.522-1.692-.522-.72 0-1.344.12-1.872.36s-.978.564-1.35.972c-.372.408-.672.876-.9 1.404-.228.528-.378 1.08-.45 1.656l-1.296 9.432h-4.32L17.64 0h4.32l-1.728 12.348zm18.684 7.74c-.024.648.066 1.224.27 1.728.204.504.486.93.846 1.278s.792.618 1.296.81c.504.192 1.056.288 1.656.288 1.08 0 2.022-.222 2.826-.666.804-.444 1.518-1.002 2.142-1.674l2.772 2.34c-1.176 1.248-2.424 2.136-3.744 2.664-1.32.528-2.664.792-4.032.792-1.296 0-2.49-.216-3.582-.648-1.092-.432-2.004-1.044-2.736-1.836-.732-.792-1.266-1.746-1.602-2.862-.336-1.116-.408-2.358-.216-3.726.192-1.368.612-2.61 1.26-3.726s1.452-2.07 2.412-2.862c.96-.792 2.046-1.404 3.258-1.836 1.212-.432 2.466-.648 3.762-.648 2.424 0 4.26.81 5.508 2.43 1.248 1.62 1.668 3.942 1.26 6.966l-.18 1.188H38.916zm9.324-3.24c.168-1.272-.084-2.274-.756-3.006-.672-.732-1.692-1.098-3.06-1.098-1.296 0-2.376.372-3.24 1.116-.864.744-1.464 1.74-1.8 2.988h8.856zm9.324-6.912h4.32l-.396 2.736h.072c.624-1.008 1.422-1.788 2.394-2.34.972-.552 2.034-.828 3.186-.828.264 0 .516.024.756.072.24.048.492.108.756.18l-.612 4.176c-.336-.096-.672-.174-1.008-.234-.336-.06-.672-.09-1.008-.09-1.008 0-1.848.186-2.52.558-.672.372-1.206.798-1.602 1.278-.396.48-.678.96-.846 1.44-.168.48-.264.84-.288 1.08l-1.296 9.252h-4.32l2.412-17.28zm16.02 10.152c-.024.648.066 1.224.27 1.728.204.504.486.93.846 1.278s.792.618 1.296.81c.504.192 1.056.288 1.656.288 1.08 0 2.022-.222 2.826-.666.804-.444 1.518-1.002 2.142-1.674l2.772 2.34c-1.176 1.248-2.424 2.136-3.744 2.664-1.32.528-2.664.792-4.032.792-1.296 0-2.49-.216-3.582-.648-1.092-.432-2.004-1.044-2.736-1.836-.732-.792-1.266-1.746-1.602-2.862-.336-1.116-.408-2.358-.216-3.726.192-1.368.612-2.61 1.26-3.726s1.452-2.07 2.412-2.862c.96-.792 2.046-1.404 3.258-1.836 1.212-.432 2.466-.648 3.762-.648 2.424 0 4.26.81 5.508 2.43 1.248 1.62 1.668 3.942 1.26 6.966l-.18 1.188H73.584zm9.324-3.24c.168-1.272-.084-2.274-.756-3.006-.672-.732-1.692-1.098-3.06-1.098-1.296 0-2.376.372-3.24 1.116-.864.744-1.464 1.74-1.8 2.988h8.856zM14.033 27.11h-.442.443z" fill="#FFF" fill-rule="evenodd"/></svg>