<?xml version="1.0" encoding="UTF-8" standalone="no"?>
<svg width="88px" height="28px" viewBox="0 0 88 28" version="1.1" xmlns="http://www.w3.org/2000/svg" xmlns:xlink="http://www.w3.org/1999/xlink">
    <!-- Generator: Sketch 3.6.1 (26313) - http://www.bohemiancoding.com/sketch -->
    <title>there copy</title>
    <desc>Created with Sketch.</desc>
    <defs></defs>
    <g id="Page-1-Copy" stroke="none" stroke-width="1" fill="none" fill-rule="evenodd">
        <path d="M11.628,12.96 L6.984,12.96 L5.904,20.7 C5.83199964,21.1800024 5.77800018,21.6539977 5.742,22.122 C5.70599982,22.5900023 5.73599952,23.0099981 5.832,23.382 C5.92800048,23.7540019 6.1259985,24.0539989 6.426,24.282 C6.7260015,24.5100011 7.18799688,24.624 7.812,24.624 C8.19600192,24.624 8.5979979,24.5880004 9.018,24.516 C9.4380021,24.4439996 9.8279982,24.312001 10.188,24.12 L9.756,27.072 C9.53999892,27.1920006 9.29400138,27.2879996 9.018,27.36 C8.74199862,27.4320004 8.46600138,27.4859998 8.19,27.522 C7.91399862,27.5580002 7.65000126,27.5879999 7.398,27.612 C7.14599874,27.6360001 6.93600084,27.648 6.768,27.648 C5.51999376,27.648 4.57800318,27.4740017 3.942,27.126 C3.30599682,26.7779983 2.86200126,26.3280028 2.61,25.776 C2.35799874,25.2239972 2.24999982,24.6060034 2.286,23.922 C2.32200018,23.2379966 2.38799952,22.5480035 2.484,21.852 L3.744,12.96 L0,12.96 L0.396,10.152 L4.14,10.152 L4.824,5.364 L8.064,5.364 L7.38,10.152 L12.024,10.152 L11.628,12.96 Z M20.232,12.348 L20.304,12.348 C20.7360022,11.6279964 21.4199953,10.9740029 22.356,10.386 C23.2920047,9.79799706 24.4319933,9.504 25.776,9.504 C26.9280058,9.504 27.8819962,9.69599808 28.638,10.08 C29.3940038,10.4640019 29.975998,10.9679969 30.384,11.592 C30.792002,12.2160031 31.0439995,12.9359959 31.14,13.752 C31.2360005,14.5680041 31.2240006,15.4199956 31.104,16.308 L29.592,27.216 L25.272,27.216 L26.496,18.468 C26.5680004,17.9879976 26.6159999,17.4540029 26.64,16.866 C26.6640001,16.2779971 26.6100007,15.7260026 26.478,15.21 C26.3459993,14.6939974 26.0880019,14.2620017 25.704,13.914 C25.3199981,13.5659983 24.7560037,13.392 24.012,13.392 C23.2919964,13.392 22.6680026,13.5119988 22.14,13.752 C21.6119974,13.9920012 21.1620019,14.315998 20.79,14.724 C20.4179981,15.132002 20.1180011,15.5999974 19.89,16.128 C19.6619989,16.6560026 19.5120004,17.2079971 19.44,17.784 L18.144,27.216 L13.824,27.216 L17.64,0 L21.96,0 L20.232,12.348 Z M38.916,20.088 C38.8919999,20.7360032 38.981999,21.3119975 39.186,21.816 C39.390001,22.3200025 39.6719982,22.7459983 40.032,23.094 C40.3920018,23.4420017 40.8239975,23.711999 41.328,23.904 C41.8320025,24.096001 42.383997,24.192 42.984,24.192 C44.0640054,24.192 45.005996,23.9700022 45.81,23.526 C46.614004,23.0819978 47.3279969,22.5240034 47.952,21.852 L50.724,24.192 C49.5479941,25.4400062 48.3000066,26.3279974 46.98,26.856 C45.6599934,27.3840026 44.3160068,27.648 42.948,27.648 C41.6519935,27.648 40.4580055,27.4320022 39.366,27 C38.2739945,26.5679978 37.3620037,25.956004 36.63,25.164 C35.8979963,24.371996 35.3640017,23.4180056 35.028,22.302 C34.6919983,21.1859944 34.619999,19.9440068 34.812,18.576 C35.004001,17.2079932 35.4239968,15.9660056 36.072,14.85 C36.7200032,13.7339944 37.5239952,12.780004 38.484,11.988 C39.4440048,11.195996 40.5299939,10.5840022 41.742,10.152 C42.9540061,9.71999784 44.2079935,9.504 45.504,9.504 C47.9280121,9.504 49.7639938,10.3139919 51.012,11.934 C52.2600062,13.5540081 52.680002,15.8759849 52.272,18.9 L52.092,20.088 L38.916,20.088 Z M48.24,16.848 C48.4080008,15.5759936 48.1560034,14.5740037 47.484,13.842 C46.8119966,13.1099963 45.7920068,12.744 44.424,12.744 C43.1279935,12.744 42.0480043,13.1159963 41.184,13.86 C40.3199957,14.6040037 39.7200017,15.5999938 39.384,16.848 L48.24,16.848 Z M57.564,9.936 L61.884,9.936 L61.488,12.672 L61.56,12.672 C62.1840031,11.663995 62.9819951,10.8840028 63.954,10.332 C64.9260049,9.77999724 65.9879942,9.504 67.14,9.504 C67.4040013,9.504 67.6559988,9.52799976 67.896,9.576 C68.1360012,9.62400024 68.3879987,9.68399964 68.652,9.756 L68.04,13.932 C67.7039983,13.8359995 67.3680017,13.7580003 67.032,13.698 C66.6959983,13.6379997 66.3600017,13.608 66.024,13.608 C65.015995,13.608 64.1760034,13.7939981 63.504,14.166 C62.8319966,14.5380019 62.298002,14.9639976 61.902,15.444 C61.505998,15.9240024 61.2240008,16.4039976 61.056,16.884 C60.8879992,17.3640024 60.7920001,17.7239988 60.768,17.964 L59.472,27.216 L55.152,27.216 L57.564,9.936 Z M73.584,20.088 C73.5599999,20.7360032 73.649999,21.3119975 73.854,21.816 C74.058001,22.3200025 74.3399982,22.7459983 74.7,23.094 C75.0600018,23.4420017 75.4919975,23.711999 75.996,23.904 C76.5000025,24.096001 77.051997,24.192 77.652,24.192 C78.7320054,24.192 79.673996,23.9700022 80.478,23.526 C81.282004,23.0819978 81.9959969,22.5240034 82.62,21.852 L85.392,24.192 C84.2159941,25.4400062 82.9680066,26.3279974 81.648,26.856 C80.3279934,27.3840026 78.9840068,27.648 77.616,27.648 C76.3199935,27.648 75.1260055,27.4320022 74.034,27 C72.9419945,26.5679978 72.0300037,25.956004 71.298,25.164 C70.5659963,24.371996 70.0320017,23.4180056 69.696,22.302 C69.3599983,21.1859944 69.287999,19.9440068 69.48,18.576 C69.672001,17.2079932 70.0919968,15.9660056 70.74,14.85 C71.3880032,13.7339944 72.1919952,12.780004 73.152,11.988 C74.1120048,11.195996 75.1979939,10.5840022 76.41,10.152 C77.6220061,9.71999784 78.8759935,9.504 80.172,9.504 C82.5960121,9.504 84.4319938,10.3139919 85.68,11.934 C86.9280062,13.5540081 87.348002,15.8759849 86.94,18.9 L86.76,20.088 L73.584,20.088 Z M82.908,16.848 C83.0760008,15.5759936 82.8240034,14.5740037 82.152,13.842 C81.4799966,13.1099963 80.4600068,12.744 79.092,12.744 C77.7959935,12.744 76.7160043,13.1159963 75.852,13.86 C74.9879957,14.6040037 74.3880017,15.5999938 74.052,16.848 L82.908,16.848 Z M14.0329176,27.1105313 C13.8855455,27.1105313 13.7381733,27.1105313 13.5908011,27.1105313 L14.0329176,27.1105313 Z" id="there-copy" fill="#FFFFFF"></path>
    </g>
</svg>